<svg width="213" height="71" viewBox="0 0 213 71" fill="none" xmlns="http://www.w3.org/2000/svg">
<path d="M35.4901 0.859863C54.6101 0.859863 70.1101 16.3599 70.1101 35.4799C70.1101 54.5999 54.6101 70.0999 35.4901 70.0999C16.3701 70.0999 0.870117 54.5999 0.870117 35.4799C0.870117 16.3699 16.3701 0.859863 35.4901 0.859863Z" fill="#293476"/>
<path d="M35.4902 1.67969C54.1602 1.67969 69.3002 16.8197 69.3002 35.4897C69.3002 54.1597 54.1602 69.2997 35.4902 69.2997C16.8202 69.2997 1.68018 54.1597 1.68018 35.4897C1.68018 16.8197 16.8202 1.67969 35.4902 1.67969Z" fill="white"/>
<path d="M35.4901 3.31006C53.2601 3.31006 67.6701 17.7201 67.6701 35.4901C67.6701 53.2601 53.2601 67.6701 35.4901 67.6701C17.7201 67.6701 3.31006 53.2601 3.31006 35.4901C3.31006 17.7201 17.7201 3.31006 35.4901 3.31006Z" fill="#293476"/>
<path d="M50.72 11.3799C55.37 15.5599 58.3 21.6099 58.3 28.3599C58.3 40.9599 48.09 51.1699 35.49 51.1699C22.9 51.1699 12.68 40.9599 12.68 28.3599C12.68 21.6199 15.61 15.5599 20.26 11.3799C12.28 16.4299 6.97998 25.3399 6.97998 35.4799C6.97998 51.2299 19.74 63.9999 35.49 63.9999C51.23 63.9999 64 51.2299 64 35.4799C64 25.3399 58.7 16.4399 50.72 11.3799Z" fill="#F6D317"/>
<path d="M54.5702 26.0297L53.5302 27.4697L51.8402 26.9197L52.8802 28.3597L51.8402 29.7997L53.5302 29.2497L54.5702 30.6897V28.9097L56.2602 28.3597L54.5702 27.8097V26.0297ZM53.7702 34.3197L52.2202 35.1797L50.9202 33.9697L51.2602 35.7097L49.7102 36.5697L51.4702 36.7897L51.8102 38.5297L52.5602 36.9197L54.3202 37.1397L53.0202 35.9297L53.7702 34.3197ZM49.5402 41.4797L47.7702 41.5997L47.1002 39.9497L46.6702 41.6697L44.9002 41.7997L46.4102 42.7397L45.9802 44.4597L47.3402 43.3197L48.8502 44.2597L48.1902 42.6097L49.5402 41.4797ZM17.2102 34.3197L18.7602 35.1797L20.0602 33.9697L19.7202 35.7097L21.2702 36.5697L19.5102 36.7897L19.1702 38.5297L18.4202 36.9197L16.6602 37.1397L17.9602 35.9297L17.2102 34.3197ZM51.8102 18.1797L51.4702 19.9197L49.7102 20.1397L51.2602 20.9997L50.9202 22.7397L52.2202 21.5297L53.7702 22.3897L53.0202 20.7797L54.3202 19.5697L52.5602 19.7897L51.8102 18.1797Z" fill="white"/>
<path d="M30.4 45.0599H40.58V42.4099H30.4V45.0599ZM27.75 40.4699H43.23V37.4199H27.75V40.4699ZM32.84 49.2299H38.14V46.9899H32.84V49.2299Z" fill="white"/>
<path d="M42.4499 13.1998C43.9299 19.5798 46.4399 19.4598 47.4499 24.1498C48.4199 28.6898 47.2299 34.8998 42.7199 35.4898C37.6399 35.4898 33.3399 35.4898 28.2599 35.4898C24.0199 34.6798 23.2899 29.9098 23.2999 26.8298C23.8599 28.2698 24.2699 28.8398 26.1399 29.6598C25.8399 24.9498 21.6999 22.7298 25.7199 16.6398C24.3699 23.3598 29.4399 24.8798 29.7999 29.6598C33.0499 24.6798 22.5499 14.9098 33.6799 9.60979C32.2199 11.7598 31.1699 13.2898 31.3699 16.2898C31.7099 21.2898 35.4999 24.4998 35.4999 29.6498C38.5199 25.6398 35.2199 20.9698 35.0099 16.5798C34.8299 12.9198 36.0399 7.87979 39.6599 7.27979C34.4999 17.2598 43.7199 22.1798 40.7999 29.6498C42.7799 28.5198 44.0399 27.0298 44.0499 24.5298C44.0799 20.3698 40.6499 18.2198 42.4499 13.1998Z" fill="#ED2926"/>
<path d="M50.1202 56.0001L48.4102 53.2701L47.7102 53.7101L47.3702 53.1701L49.3802 51.9101L49.7202 52.4501L49.0202 52.8901L50.7302 55.6201L50.1202 56.0001ZM48.1302 57.1501L46.2002 53.8101L46.8202 53.4501L48.7502 56.7901L48.1302 57.1501ZM42.0402 57.1001L42.4402 56.9901C42.6402 56.9401 42.7702 56.8601 42.8302 56.7601C42.8902 56.6601 42.8902 56.5001 42.8302 56.3001C42.7802 56.1201 42.7002 56.0001 42.6002 55.9501C42.4902 55.9001 42.3302 55.9001 42.1002 55.9601L41.7602 56.0501L42.0402 57.1001ZM41.9502 59.4301L40.9502 55.7101L42.1902 55.3801C42.5702 55.2801 42.8602 55.2801 43.0602 55.3901C43.2702 55.5001 43.4202 55.7201 43.5102 56.0701C43.5802 56.3101 43.5802 56.5101 43.5302 56.6801C43.4802 56.8401 43.3702 56.9601 43.2002 57.0301C43.5502 57.0301 43.8002 57.2601 43.9402 57.7301C43.9502 57.7501 43.9502 57.7701 43.9502 57.7801L44.1002 58.2701C44.1402 58.4101 44.1902 58.5201 44.2402 58.5901C44.2902 58.6701 44.3602 58.7301 44.4302 58.7701L43.6102 58.9901C43.5702 58.9301 43.5402 58.8601 43.5102 58.7801C43.4802 58.7001 43.4402 58.5801 43.3902 58.4301L43.2802 58.0401L43.2502 57.9401C43.1902 57.7201 43.1102 57.5901 42.9902 57.5301C42.8802 57.4701 42.6802 57.4801 42.4002 57.5601L42.1602 57.6201L42.6002 59.2501L41.9502 59.4301ZM44.5902 57.2601L45.2502 56.9701L45.3502 57.2001C45.4502 57.4201 45.5402 57.5501 45.6302 57.6101C45.7202 57.6601 45.8302 57.6601 45.9602 57.6001C46.1002 57.5401 46.1902 57.4601 46.2302 57.3501C46.2702 57.2501 46.2602 57.1301 46.2002 56.9901C46.1502 56.8801 46.0902 56.8101 46.0002 56.7501C45.9202 56.7001 45.7602 56.6501 45.5402 56.6001L45.1002 56.5101C44.7202 56.4401 44.4602 56.3501 44.3302 56.2601C44.1902 56.1601 44.0802 56.0201 43.9902 55.8201C43.8602 55.5201 43.8402 55.2501 43.9402 55.0101C44.0402 54.7601 44.2402 54.5701 44.5502 54.4401C44.8802 54.2901 45.1702 54.2701 45.4202 54.3701C45.6702 54.4701 45.8702 54.6901 46.0202 55.0201C46.0302 55.0501 46.0502 55.0801 46.0502 55.1001C46.0602 55.1201 46.0602 55.1401 46.0702 55.1501L45.4502 55.4301L45.4102 55.3401C45.3302 55.1501 45.2302 55.0301 45.1302 54.9701C45.0302 54.9201 44.9102 54.9201 44.7702 54.9801C44.6602 55.0301 44.6002 55.1001 44.5602 55.1801C44.5302 55.2701 44.5302 55.3701 44.5802 55.4801C44.6502 55.6301 44.8502 55.7301 45.2002 55.7901H45.2102L45.6802 55.8701C46.0102 55.9301 46.2602 56.0101 46.4202 56.1201C46.5802 56.2301 46.7102 56.4001 46.8202 56.6401C46.9602 56.9601 46.9802 57.2501 46.8802 57.5001C46.7802 57.7601 46.5502 57.9601 46.2102 58.1101C45.8602 58.2701 45.5502 58.2901 45.3002 58.1901C45.0502 58.0801 44.8302 57.8401 44.6702 57.4701C44.6502 57.4301 44.6302 57.3601 44.5902 57.2701V57.2601ZM39.0502 59.9701L38.3802 56.1701L40.3302 55.8201L40.4402 56.4501L39.1902 56.6701L39.3502 57.5501L40.5102 57.3401L40.6202 57.9401L39.4602 58.1501L39.6402 59.1901L40.9202 58.9601L41.0302 59.6001L39.0502 59.9701ZM36.4502 60.1201L35.3202 56.3401L36.0902 56.2901L36.8802 59.3201L37.1802 56.2101L37.9402 56.1601L37.4102 60.0601L36.4502 60.1201ZM34.0702 60.0701L34.2702 56.2201L34.9902 56.2601L34.7902 60.1101L34.0702 60.0701ZM30.6602 59.6301L31.1902 55.8101L31.9202 55.9101L32.5402 58.7201L32.8902 56.0501L33.5602 56.1401L33.0302 59.9601L32.3002 59.8601L31.6702 57.0501L31.3202 59.7301L30.6602 59.6301ZM28.3602 55.0401L29.0502 55.2401L28.3402 57.7401C28.2602 58.0201 28.2402 58.2301 28.2802 58.3501C28.3202 58.4701 28.4302 58.5601 28.6102 58.6101C28.7902 58.6601 28.9202 58.6401 29.0202 58.5601C29.1202 58.4801 29.2102 58.2901 29.2902 58.0001L30.0002 55.5101L30.6802 55.7001L29.9502 58.2601C29.8802 58.5101 29.8102 58.6901 29.7502 58.7901C29.6902 58.9001 29.6102 58.9801 29.5202 59.0501C29.3802 59.1501 29.2202 59.2101 29.0402 59.2301C28.8602 59.2501 28.6502 59.2301 28.4302 59.1601C28.0102 59.0401 27.7302 58.8601 27.6102 58.6301C27.4902 58.4001 27.4902 58.0501 27.6202 57.5901L28.3602 55.0401ZM23.6502 56.5601L23.9302 56.7101C24.0702 56.7901 24.1802 56.8301 24.2502 56.8401C24.3202 56.8501 24.3802 56.8401 24.4402 56.8101C24.5502 56.7501 24.6502 56.6501 24.7602 56.5101C24.8702 56.3701 25.0102 56.1301 25.1902 55.7901C25.3702 55.4601 25.4802 55.2101 25.5302 55.0501C25.5802 54.8801 25.5902 54.7401 25.5602 54.6301C25.5402 54.5701 25.5102 54.5201 25.4602 54.4701C25.4102 54.4201 25.3202 54.3701 25.2002 54.3001L24.9302 54.1601L23.6502 56.5601ZM22.7602 56.7301L24.5702 53.3301L25.5902 53.8701C25.8002 53.9801 25.9502 54.0901 26.0602 54.1901C26.1602 54.2901 26.2402 54.4001 26.2702 54.5201C26.3302 54.7001 26.3302 54.8901 26.2902 55.1001C26.2402 55.3001 26.1202 55.5901 25.9202 55.9701C25.6602 56.4501 25.4702 56.7901 25.3302 56.9701C25.1902 57.1501 25.0402 57.2901 24.8902 57.3901C24.7402 57.4901 24.5802 57.5301 24.4102 57.5101C24.2402 57.4901 23.9802 57.3901 23.6402 57.2101L22.7602 56.7301ZM20.2802 55.1401L22.4902 51.9801L24.1102 53.1101L23.7402 53.6401L22.7002 52.9101L22.1902 53.6401L23.1602 54.3201L22.8102 54.8201L21.8402 54.1401L21.2302 55.0101L22.2902 55.7501L21.9202 56.2801L20.2802 55.1401ZM18.4702 53.6701L20.4902 51.1701L19.8502 50.6501L20.2502 50.1601L22.0902 51.6501L21.6902 52.1401L21.0502 51.6201L19.0302 54.1201L18.4702 53.6701ZM52.8902 54.0901L51.8202 52.8601L49.6002 51.8501L50.2002 51.3301L51.5902 52.0401L51.0702 50.5701L51.6502 50.0601L52.3602 52.3901L53.4302 53.6201L52.8902 54.0901Z" fill="#293476"/>
<path d="M206.31 42.3197V36.2697L202.57 28.0497H205.52L207.68 33.4197L209.81 28.0497H212.67L208.99 36.2697V42.3197H206.31V42.3197ZM195.94 42.3197V30.3997H192.88V28.0497H201.66V30.3997H198.6V42.3197H195.94V42.3197ZM188.26 42.3197V28.0397H190.92V42.3097H188.26V42.3197ZM177.04 37.2997H179.7V38.2197C179.7 39.0997 179.81 39.6897 180.03 40.0097C180.25 40.3297 180.63 40.4897 181.17 40.4897C181.73 40.4897 182.16 40.3497 182.45 40.0597C182.74 39.7797 182.89 39.3597 182.89 38.7997C182.89 38.3697 182.79 38.0097 182.58 37.6997C182.38 37.3997 181.93 36.9997 181.25 36.5197L179.89 35.5597C178.72 34.7397 177.97 34.0697 177.65 33.5397C177.33 33.0097 177.17 32.3397 177.17 31.5397C177.17 30.3397 177.52 29.3997 178.24 28.7197C178.95 28.0397 179.93 27.6997 181.18 27.6997C182.5 27.6997 183.51 28.0597 184.22 28.7797C184.93 29.4997 185.28 30.5397 185.28 31.8897C185.28 32.0297 185.28 32.1297 185.28 32.1997C185.28 32.2797 185.27 32.3397 185.26 32.3997H182.74V32.0197C182.74 31.2497 182.61 30.6897 182.36 30.3597C182.11 30.0297 181.69 29.8597 181.11 29.8597C180.68 29.8597 180.35 29.9897 180.1 30.2397C179.86 30.4897 179.73 30.8297 179.73 31.2797C179.73 31.8797 180.28 32.5397 181.37 33.2697L181.4 33.2897L182.86 34.2797C183.9 34.9697 184.61 35.6197 184.98 36.2397C185.35 36.8597 185.54 37.6397 185.54 38.5897C185.54 39.8897 185.17 40.8897 184.43 41.5897C183.69 42.2997 182.63 42.6497 181.25 42.6497C179.82 42.6497 178.75 42.2797 178.05 41.5397C177.35 40.7997 177 39.6697 177 38.1497C177 37.9897 177.01 37.7297 177.04 37.3597V37.2997V37.2997ZM165.79 42.3197V28.0397H170.55C171.99 28.0397 173.03 28.3297 173.66 28.9197C174.29 29.4997 174.61 30.4597 174.61 31.7797C174.61 32.6997 174.44 33.4297 174.1 33.9697C173.76 34.4997 173.26 34.8197 172.6 34.9097C173.86 35.2397 174.52 36.3097 174.57 38.1097C174.57 38.1897 174.57 38.2497 174.57 38.2897L174.65 40.1797C174.68 40.7197 174.74 41.1497 174.85 41.4697C174.96 41.7897 175.13 42.0697 175.37 42.3097H172.22C172.14 42.0697 172.09 41.7797 172.05 41.4597C172.01 41.1297 171.99 40.6797 171.98 40.0797L171.94 38.5897V38.2097C171.94 37.3797 171.76 36.8097 171.41 36.4997C171.06 36.1897 170.34 36.0297 169.26 36.0297H168.35V42.2997H165.79V42.3197ZM168.36 34.0797H169.89C170.66 34.0797 171.2 33.9197 171.5 33.6197C171.8 33.3097 171.95 32.7597 171.95 31.9597C171.95 31.2497 171.79 30.7497 171.46 30.4697C171.13 30.1897 170.54 30.0397 169.67 30.0397H168.36V34.0797ZM155.83 42.3197V28.0397H163.16V30.4097H158.47V33.7097H162.84V35.9697H158.47V39.8997H163.27V42.3097H155.83V42.3197ZM147.14 42.3197L143.94 28.0497H146.78L148.9 39.4397L150.82 28.0497H153.63L150.64 42.3197H147.14ZM139.25 42.3197V28.0397H141.91V42.3097H139.25V42.3197ZM127.38 42.3197V28.0397H130.11L133.83 38.0197L133.76 28.0397H136.27V42.3097H133.56L129.81 32.3097L129.88 42.3097H127.38V42.3197ZM115.48 28.0397H118.14V37.6597C118.14 38.7597 118.27 39.4997 118.54 39.8997C118.81 40.2897 119.29 40.4897 119.97 40.4897C120.65 40.4897 121.12 40.2897 121.38 39.8997C121.64 39.4997 121.77 38.7497 121.77 37.6297V28.0497H124.39V37.8997C124.39 38.8597 124.34 39.5597 124.23 39.9997C124.12 40.4397 123.94 40.8297 123.69 41.1597C123.31 41.6597 122.8 42.0397 122.17 42.2897C121.54 42.5397 120.79 42.6697 119.93 42.6697C118.3 42.6697 117.15 42.3197 116.48 41.6097C115.81 40.8997 115.47 39.6697 115.47 37.9097V28.0397H115.48ZM99.0201 42.3197V28.0397H103.29C104.16 28.0397 104.86 28.1097 105.37 28.2597C105.89 28.4097 106.31 28.6497 106.64 28.9797C107.14 29.4697 107.49 30.0797 107.7 30.8297C107.91 31.5797 108.01 32.7297 108.01 34.2997C108.01 36.3197 107.94 37.7597 107.8 38.5997C107.66 39.4397 107.41 40.1497 107.08 40.7397C106.75 41.3297 106.3 41.7397 105.71 41.9697C105.12 42.1997 104.11 42.3197 102.67 42.3197H99.0201ZM101.63 40.2197H102.81C103.41 40.2197 103.83 40.1797 104.07 40.0897C104.31 39.9997 104.5 39.8597 104.64 39.6397C104.89 39.2697 105.06 38.7597 105.17 38.1197C105.27 37.4697 105.33 36.4397 105.33 35.0197C105.33 33.6397 105.27 32.6297 105.14 31.9997C105.02 31.3697 104.81 30.8897 104.51 30.5697C104.35 30.4097 104.16 30.2897 103.91 30.2297C103.67 30.1597 103.28 30.1297 102.77 30.1297H101.63V40.2197V40.2197ZM89.0601 42.3197V28.0397H96.3901V30.4097H91.7001V33.7097H96.0701V35.9697H91.7001V39.8997H96.5001V42.3097H89.0601V42.3197ZM81.3901 42.3197V30.3997H78.3301V28.0497H87.1101V30.3997H84.0501V42.3197H81.3901V42.3197Z" fill="white"/>
</svg>
